<svg width="361" height="360" viewBox="0 0 361 360" fill="none" xmlns="http://www.w3.org/2000/svg">
<g filter="url(#filter0_d_5791_2)">
<rect width="360" height="360" rx="180" fill="white"/>
<path d="M122.666 156.567L121.179 154.354C115.009 145.169 117.469 132.721 126.668 126.573L171.709 96.4703C180.991 90.2665 193.556 92.8639 199.617 102.24L200.995 104.371C206.918 113.532 204.407 125.748 195.352 131.831L150.42 162.016C141.252 168.175 128.825 165.736 122.666 156.567Z" fill="white" stroke="#4B066B" stroke-width="14.4253"/>
<path d="M110 194.001V145.069C110 133.997 118.996 125.031 130.068 125.069L227.82 125.401C238.936 125.439 247.888 134.533 247.751 145.647L247.151 194.248C247.016 205.196 238.102 214.001 227.153 214.001H130C118.954 214.001 110 205.047 110 194.001Z" fill="#4B066B"/>
<path d="M189 179.788V159.232C189 155.241 192.24 152.009 196.231 152.019L253.687 152.166C257.709 152.177 260.946 155.475 260.88 159.497L260.546 179.906C260.482 183.843 257.272 187.001 253.335 187.001H196.213C192.229 187.001 189 183.772 189 179.788Z" fill="#4B066B" stroke="white" stroke-width="9.01583"/>
<circle cx="216.006" cy="169.36" r="7.93393" fill="white"/>
<path d="M147.475 233.465C147.475 234.772 147.183 235.892 146.6 236.825C146.017 237.758 145.223 238.47 144.22 238.96C142.377 239.847 140.148 240.29 137.535 240.29C137.092 240.29 136.473 240.267 135.68 240.22V249.845L138.34 250.16V251H128.435V250.16L131.06 249.845V228.705L128.05 228.355V227.55H135.015L139.11 227.445C142.003 227.468 144.115 227.982 145.445 228.985C146.798 229.988 147.475 231.482 147.475 233.465ZM136.66 239.205C138.573 239.205 140.043 238.692 141.07 237.665C142.097 236.615 142.61 235.227 142.61 233.5C142.61 231.773 142.248 230.513 141.525 229.72C140.802 228.903 139.658 228.495 138.095 228.495C136.998 228.495 136.193 228.542 135.68 228.635V239.135C136.1 239.182 136.427 239.205 136.66 239.205ZM164.624 248.865C162.991 250.545 160.763 251.385 157.939 251.385C155.116 251.385 152.888 250.545 151.254 248.865C149.621 247.185 148.804 245.05 148.804 242.46C148.804 239.87 149.621 237.735 151.254 236.055C152.888 234.375 155.116 233.535 157.939 233.535C160.763 233.535 162.991 234.375 164.624 236.055C166.258 237.735 167.074 239.87 167.074 242.46C167.074 245.05 166.258 247.185 164.624 248.865ZM153.669 242.46C153.669 247.85 155.093 250.545 157.939 250.545C160.786 250.545 162.209 247.85 162.209 242.46C162.209 239.823 161.894 237.828 161.264 236.475C160.634 235.098 159.526 234.41 157.939 234.41C156.353 234.41 155.244 235.098 154.614 236.475C153.984 237.828 153.669 239.823 153.669 242.46ZM175.566 246.135C175.566 247.512 175.729 248.515 176.056 249.145C176.406 249.775 177.094 250.09 178.121 250.09C179.147 250.09 180.162 249.448 181.166 248.165C182.169 246.882 182.671 245.773 182.671 244.84V235.04L179.906 234.9V234.095L187.151 233.64V249.88L189.986 250.02V250.825L182.811 251.245L182.986 247.745H182.636C181.282 250.148 179.322 251.35 176.756 251.35C173.022 251.35 171.156 249.553 171.156 245.96C171.156 242.367 171.284 238.727 171.541 235.04L168.951 234.9V234.095L175.916 233.71C175.682 238.983 175.566 243.125 175.566 246.135ZM203.391 239.59C203.507 239.123 203.566 238.598 203.566 238.015C203.566 237.408 203.391 236.79 203.041 236.16C202.527 235.133 201.746 234.62 200.696 234.62C197.896 234.62 196.496 237.257 196.496 242.53C196.496 247.78 197.931 250.405 200.801 250.405C202.971 250.405 204.709 249.355 206.016 247.255C206.529 247.418 206.786 247.675 206.786 248.025C206.786 248.352 206.564 248.772 206.121 249.285C205.701 249.775 204.954 250.253 203.881 250.72C202.831 251.163 201.617 251.385 200.241 251.385C197.604 251.385 195.516 250.58 193.976 248.97C192.459 247.337 191.701 245.167 191.701 242.46C191.701 239.73 192.494 237.56 194.081 235.95C195.667 234.34 197.896 233.535 200.766 233.535C201.652 233.535 202.527 233.652 203.391 233.885C204.254 234.095 205.071 234.562 205.841 235.285C206.611 236.008 206.996 236.883 206.996 237.91C206.996 238.913 206.541 239.567 205.631 239.87C205.304 239.987 204.942 240.045 204.546 240.045C204.149 240.045 203.764 239.893 203.391 239.59ZM222.528 249.985L222.738 238.89C222.738 237.513 222.563 236.51 222.213 235.88C221.863 235.25 221.163 234.935 220.113 234.935C219.063 234.935 218.025 235.577 216.998 236.86C215.995 238.143 215.493 239.252 215.493 240.185V249.985L218.118 250.195V251H208.738V250.195L211.048 249.985V225.87L208.038 225.765V224.925L215.528 224.12V231.96C215.528 234.597 215.458 236.382 215.318 237.315H215.528C216.158 236.148 217.01 235.25 218.083 234.62C219.157 233.99 220.312 233.675 221.548 233.675C225.282 233.675 227.148 235.472 227.148 239.065C227.148 241.655 227.067 245.295 226.903 249.985L229.318 250.195V251H220.848V250.195L222.528 249.985Z" fill="#4B066B"/>
</g>
<defs>
<filter id="filter0_d_5791_2" x="0" y="0" width="361" height="360" filterUnits="userSpaceOnUse" color-interpolation-filters="sRGB">
<feFlood flood-opacity="0" result="BackgroundImageFix"/>
<feColorMatrix in="SourceAlpha" type="matrix" values="0 0 0 0 0 0 0 0 0 0 0 0 0 0 0 0 0 0 127 0" result="hardAlpha"/>
<feOffset dx="1"/>
<feComposite in2="hardAlpha" operator="out"/>
<feColorMatrix type="matrix" values="0 0 0 0 0 0 0 0 0 0 0 0 0 0 0 0 0 0 0.25 0"/>
<feBlend mode="normal" in2="BackgroundImageFix" result="effect1_dropShadow_5791_2"/>
<feBlend mode="normal" in="SourceGraphic" in2="effect1_dropShadow_5791_2" result="shape"/>
</filter>
</defs>
</svg>
